<?xml version="1.0" standalone="no"?>
<!DOCTYPE svg PUBLIC "-//W3C//DTD SVG 20010904//EN"
 "http://www.w3.org/TR/2001/REC-SVG-20010904/DTD/svg10.dtd">
<svg version="1.0" xmlns="http://www.w3.org/2000/svg"
 width="2000.000000pt" height="1000.000000pt" viewBox="0 0 2000.000000 1000.000000"
 preserveAspectRatio="xMidYMid meet">

<g transform="translate(0.000000,1000.000000) scale(0.100000,-0.100000)"
fill="#000000" stroke="none">
<path d="M10468 5901 c-7 -10 -24 -22 -38 -26 -13 -4 -47 -23 -75 -41 -56 -37
-115 -53 -192 -54 l-53 0 2 -142 c1 -104 3 -125 7 -78 l6 65 65 6 c48 5 85 17
134 43 48 26 80 36 112 36 l44 0 0 -55 c0 -30 -4 -55 -10 -55 -6 0 -10 -135
-10 -385 l0 -385 -322 -2 -323 -3 0 -40 0 -40 324 -2 324 -2 1 -588 1 -588
-298 -3 -297 -2 506 -538 c279 -295 526 -557 549 -581 39 -40 49 -45 120 -57
292 -51 623 -35 931 45 543 142 1026 502 1327 991 55 90 170 326 165 339 -1 5
-117 129 -255 275 l-253 266 0 -370 0 -370 -675 0 -675 0 0 275 0 275 -205 0
-205 0 0 -275 0 -275 -330 0 -330 0 0 585 c0 322 1 588 3 591 1 3 97 7 212 7
l210 2 0 40 0 40 -212 3 -213 2 0 533 c0 401 -3 536 -12 545 -18 18 -45 15
-60 -7z"/>
<path d="M11172 5698 l-232 -139 0 -75 c0 -41 3 -73 8 -71 4 3 108 66 231 141
l224 136 36 -21 c20 -11 119 -71 221 -132 l185 -113 1 -339 0 -340 575 0 574
0 0 40 0 40 -272 5 -273 5 -290 305 -290 305 0 56 0 56 -212 129 c-116 71
-221 134 -233 141 -18 10 -47 -5 -253 -129z"/>
<path d="M11272 5399 c-70 -35 -105 -71 -140 -147 -20 -45 -23 -65 -20 -130 5
-93 25 -139 88 -203 109 -110 301 -110 410 0 63 64 83 110 88 203 3 65 0 85
-20 130 -35 76 -70 112 -140 147 -51 26 -73 31 -133 31 -60 0 -82 -5 -133 -31z
m244 -37 c90 -46 138 -126 139 -227 0 -59 -5 -78 -30 -123 -81 -148 -281 -176
-400 -57 -50 51 -70 100 -70 180 1 118 68 208 185 246 40 13 133 3 176 -19z"/>
<path d="M11380 5230 l0 -90 -90 0 c-89 0 -90 0 -90 -25 l0 -25 114 0 c95 0
115 3 120 16 3 9 6 60 6 115 l0 99 -30 0 -30 0 0 -90z"/>
</g>
</svg>
